# xmcd
#
# Track frame offsets: 
#        150
#        21262
#        36022
#        51195
#        81145
#        101597
#        122965
#        134795
#        150650
#
# Disc length: 2242 seconds
#
# Revision: 9
# Processed by: cddbd v1.5.2PL0 Copyright (c) Steve Scherf et al.
# Submitted via: ExactAudioCopy v0.95b4
#
DISCID=7708c009
DTITLE=Rainbow - Ritchie Blackmore's Rainbow
DYEAR=1975
DGENRE=Hard Rock
TTITLE0=Man On The Silver Mountain
TTITLE1=Self Portrait
TTITLE2=Black Sheep Of The Family
TTITLE3=Catch The Rainbow
TTITLE4=Snake Charmer
TTITLE5=The Temple Of The King
TTITLE6=If You Don't Like Rock 'N' Roll
TTITLE7=Sixteenth Century Greensleeves
TTITLE8=Still I'm Sad
EXTD=YEAR: 1975
EXTT0=
EXTT1=
EXTT2=
EXTT3=
EXTT4=
EXTT5=
EXTT6=
EXTT7=
EXTT8=
PLAYORDER=
